<svg xmlns="http://www.w3.org/2000/svg" xmlns:xlink="http://www.w3.org/1999/xlink" width="58" height="58" viewBox="0 0 58 58">
  <defs>
    <filter id="iconfinder_like_thumbs_up_vote_favorite_good_3994377" x="0" y="0" width="58" height="58" filterUnits="userSpaceOnUse">
      <feOffset dy="3" input="SourceAlpha"/>
      <feGaussianBlur stdDeviation="3" result="blur"/>
      <feFlood flood-opacity="0.161"/>
      <feComposite operator="in" in2="blur"/>
      <feComposite in="SourceGraphic"/>
    </filter>
  </defs>
  <g transform="matrix(1, 0, 0, 1, 0, 0)" filter="url(#iconfinder_like_thumbs_up_vote_favorite_good_3994377)">
    <path id="iconfinder_like_thumbs_up_vote_favorite_good_3994377-2" data-name="iconfinder_like_thumbs_up_vote_favorite_good_3994377" d="M32.5,10H29.951C29.69,5.342,28.032,0,17.5,0A2.5,2.5,0,0,0,15,2.5c0,4.534-.047,8.487-3.622,12.5H2.5A2.5,2.5,0,0,0,0,17.5v20A2.5,2.5,0,0,0,2.5,40h30A7.508,7.508,0,0,0,40,32.5v-15A7.508,7.508,0,0,0,32.5,10ZM5,20h5V35H5ZM35,32.5A2.5,2.5,0,0,1,32.5,35H15V18.5c4.136-4.536,4.851-9.136,4.973-13.384C25,5.664,25,8.13,25,12.5A2.5,2.5,0,0,0,27.5,15h5A2.5,2.5,0,0,1,35,17.5Z" transform="translate(9 6)" fill="#fff" opacity="0.901"/>
  </g>
</svg>
